<svg xmlns="http://www.w3.org/2000/svg" viewBox="0 0 580.7 222.45"><defs><style>.cls-1{fill:#fff;fill-rule:evenodd;}.cls-2{fill:#cd198b;}.cls-3{fill:#fff;}.cls-4{fill:#c53393;}.cls-5{fill:#051c33;}</style></defs><title>EAP-logo</title><g id="Layer_2" data-name="Layer 2"><g id="Layer_1-2" data-name="Layer 1"><path class="cls-1" d="M514,201.6h-4.8c-3.16-7.88-6.31-15.77-9.66-24.13v24.06h-5.23V166.46h6.81c3.45,8.33,6.88,16.63,10.45,25.27l10.5-25.3H529v35.13h-5.19V177.93l-.31-.06Z"/><path class="cls-1" d="M302.81,166.39h6.36l17,25V166.46h5.24v35.07h-5.17q-8.82-12.81-18.15-26.42v26.41h-5.26Z"/><path class="cls-1" d="M385.78,55.65H391V90.37h-5.36L367.72,64.3V90.35h-5.26V55.72H369l16.78,24.86Z"/><path class="cls-1" d="M292.87,111.22h5.25v34.72h-5.2l-18.11-26.29v26.28h-5.26V111.3h6.69l16.63,24.63Z"/><path class="cls-1" d="M261.6,201.59h-5.08V172.14H240.7v29.38h-5.24V166.46H261.6Z"/><path class="cls-1" d="M389.79,201.59h-5.08V172.14H368.89v29.38h-5.23V166.46h26.13Z"/><path class="cls-1" d="M466.24,201.59H461V166.46h5.09v14.78h15.83V166.46h5.22v35.06h-5.1V186.74H466.24Z"/><path class="cls-1" d="M350.23,75.92H334.4V90.36h-5.22V55.72h5.08V70.49h15.82V55.71h5.23V90.36h-5.08Z"/><path class="cls-1" d="M354.33,111.22h5.48v15l10.26-15h6.19l-12.1,17.52,12.65,17.17h-6.28L360,132v13.94h-5.65Z"/><path class="cls-1" d="M343.71,186.56v9.74h14v5.23H338.51V166.47h19.23V172H343.79v9.33h12.33v5.28Z"/><path class="cls-1" d="M418.22,73.14l12.64,17.22h-6.35L413.87,76.19v14.2h-5.21V55.68h5.18v15.1l10.25-15.07h6.25Z"/><path class="cls-1" d="M254.71,90.43H235.46V55.71H254.7v5.08h-14v9.74h11.93v5.28H240.74v9.34h14Z"/><path class="cls-1" d="M415.15,184c-2.2-3.19-4.42-6.35-6.56-9.56-1.9-2.84-1.87-2.86-1.54-8h20.47v5.45H413.23l8.25,12.15-8.16,12.33h14.21v5.13H407.07c-.23-2.89-.41-5.61,1.74-8.19A111.24,111.24,0,0,0,415.15,184Z"/><path class="cls-1" d="M274.19,64.12c-3.72,9.09-7.24,17.7-10.75,26.3h-5.75c4.81-11.62,9.58-23.16,14.38-34.77h4.24c4.77,11.55,9.54,23.08,14.36,34.76H285Z"/><path class="cls-1" d="M306.42,55.62h4.2q7.14,17.31,14.37,34.8h-5.68L308.52,64.08c-3.61,8.85-7.18,17.58-10.75,26.35H292Z"/><path class="cls-1" d="M441,172h-8v-5.54h21.32V172h-8v29.53H441Z"/><path class="cls-1" d="M381.51,111.22h20.86v5.16h-7.93v29.56h-5.27V116.52h-7.66Z"/><path class="cls-1" d="M401.16,201.59h-5.05V166.46h5.05Z"/><path class="cls-1" d="M540.3,201.59h-5V166.46h5Z"/><path class="cls-1" d="M397.33,55.64h5V90.36h-5Z"/><path class="cls-1" d="M343.37,111.22h5.16v34.72h-5.16Z"/><path class="cls-1" d="M452.35,54.76C440.66,54.32,433,63.09,433,73c0,10.37,7.63,17.81,17.63,18.3,10.5.52,19.27-8.49,18.77-18.23C469.87,62.77,461.08,55.09,452.35,54.76Zm-1,31.19c-7.39-.14-13-5.42-13.06-12.84a12.91,12.91,0,0,1,25.82-.18C464.33,79.86,458.23,86.09,451.39,86Z"/><path class="cls-1" d="M339.2,128.64c.48-10.41-8.33-17.88-16.64-18.31-12-.61-19.76,8.19-19.75,18.22s7.36,18,18.25,18.3C331.24,147.14,339.83,137.8,339.2,128.64Zm-18.14,12.87c-7.74-.32-13-5.78-12.95-13.11a12.82,12.82,0,0,1,13.12-12.75c6.51-.06,13,5.77,12.7,12.84C334.19,135.42,327.79,141.79,321.06,141.51Z"/><path class="cls-1" d="M443.06,128.52c.46-10-8.32-17.72-16.77-18.22a18.2,18.2,0,0,0-19.66,18.36c.15,10.36,7.91,18,18.4,18.19C434.83,147.05,443.73,138,443.06,128.52Zm-18.1,13c-7.7-.31-12.81-5.36-13-13.06-.2-6.77,5.69-12.91,13.27-12.79a12.91,12.91,0,0,1,12.57,13C438,135.4,431.73,141.78,425,141.5Z"/><path class="cls-1" d="M562.62,165.94c-10.59-.57-18.52,8.51-18.46,18.06.06,10.52,7.78,18.28,18.35,18.38a18.37,18.37,0,0,0,18.14-16.85C581.5,173.63,571.23,165.08,562.62,165.94Zm-.34,31.1c-7.38-.19-12.56-5.41-12.83-12.83-.26-7.08,6.25-13.27,13.5-13.06,6.22.19,12.67,6.14,12.36,12.86A12.88,12.88,0,0,1,562.28,197Z"/><path class="cls-1" d="M284,166.39h-3.75l-14.74,35.14h6q2.2-5.46,4.3-10.68h12.74l4.39,10.73h5.89C293.84,189.75,288.93,178.08,284,166.39Zm-5.93,18.88c1.33-3.32,2.67-6.62,4.1-10.16,1.39,3.49,2.68,6.72,4.06,10.16Z"/><path class="cls-1" d="M250.89,111.22h-4c-4.86,11.55-9.69,23.06-14.61,34.75h6c1.48-3.66,2.94-7.27,4.36-10.8h12.61l4.42,10.74h5.9C260.57,134.21,255.72,122.7,250.89,111.22Zm-6.11,18.56,4.09-10.15c1.4,3.42,2.72,6.65,4.16,10.15Z"/><path class="cls-5" d="M77.87,11.68V0c2.52.45,4.87.81,7.19,1.29,7,1.44,14.08,2.75,21,4.46,13,3.17,26,6.26,38.85,10,11.06,3.22,22,7,32.75,11.08a117.3,117.3,0,0,1,26.89,14,30.37,30.37,0,0,1,5.08,4.48c.45.43,3,3.58,3,4.23q0,77.66,0,155.31c0,.26,0,.53-.07,1.12-20.07-15-41.71-26.94-64.39-37a386,386,0,0,0-70.27-23.44V30.8c9.83-.46,19.68-1.26,29.51-1.28s19.71.41,29.5,1.3,19.61,2.29,29.32,4c9.5,1.7,18.88,4.11,28.66,6.28-1.16-.69-2-1.23-2.89-1.68-1.54-.79-3.09-1.58-4.66-2.29-16.45-7.4-33.81-11.88-51.34-15.67-9.36-2-18.81-3.67-28.24-5.32C100.9,15,94,14,87.05,12.94c-3.07-.48-6.12-.72-9.18-1.26"/><path class="cls-2" d="M212.28,222.45c-1-.62-1.53-1-2.1-1.31-18-10.4-37-18.74-56.35-26.15-37-14.16-75.06-25-113.57-34.29-3.82-.92-7.7-1.65-11.55-2.47v64.22Z"/><path class="cls-2" d="M28.76,42.45V40c.46-.2.63-.31.81-.36C38,37.74,46.42,35.68,54.9,34,60,33,64.83,32.27,70,31.58c2.55-.35,5.42-.41,8-.78,9.84-.46,19.67-1.26,29.51-1.28s19.71.41,29.5,1.3,19.61,2.29,29.32,4c9.5,1.7,18.88,4.1,28.67,6.28-1.18-.69-2-1.23-2.9-1.68-1.54-.79-3.08-1.58-4.66-2.29-16.45-7.4-33.81-11.88-51.34-15.67-9.36-2-18.81-3.67-28.24-5.32C100.9,15,94,14,87.05,13c-3.07-.49-6.12-.73-9.18-1.27-2.32-.15-4.65-.56-7-.82-4-.45-8-1-12-1.55-3.53-.44-7.08-.79-10.61-1.25C44.57,7.58,40.81,7,37,6.5c-3.46-.44-6.94-.79-10.41-1.24-3.78-.5-7.55-1-11.33-1.59-2.6-.37-5.2-.78-7.81-1.12C5,2.23,2.56,2,0,1.69V151.38q14.39,3.42,28.68,6.8c0-.86.08-1.72.08-2.58V42.45"/><path class="cls-3" d="M148.2,169a385,385,0,0,0-68.48-23H78v-.41l-.1,0V30.8c-2.54.37-5.42.43-8,.78C64.83,32.27,60,33,54.9,34,46.42,35.68,38,37.74,29.57,39.63c-.18,0-.35.16-.81.36v118.2l.34.12c3.72.78,7.46,1.5,11.16,2.39C78.77,170,116.8,180.83,153.83,195c19.38,7.41,38.35,15.75,56.36,26.15.56.32,1.1.69,2.09,1.31V205.76c-20-14.9-41.53-26.75-64.08-36.77"/><path class="cls-4" d="M28.68,158.18v0h0v0h0"/></g></g></svg>
